<?xml version="1.0" encoding="UTF-8"?> <svg xmlns="http://www.w3.org/2000/svg" id="_Слой_2" data-name="Слой 2" viewBox="0 0 606.99 73.23"><defs><style> .cls-1 { fill: #212a3c; fill-rule: evenodd; stroke-width: 0px; } </style></defs><g id="_Слой_1-2" data-name="Слой 1"><g><path class="cls-1" d="M606.89,72.5c.17.61-.52.86-.95.31l-4.58-5.33c-1.04.12-.78.06-1.82,1.22-.52.62-.95,1.05-1.4,1.6-.52.55-.95,1.05-1.39,1.6-.26.31-.52.56-.78.87-.26.3-.35.61-.96.37-.52-.37.35-1.18.62-1.49l3.65-4.12c1.48-1.6,1.13-1.24,1.14-4.08,0-1.66.09-3.58.02-5.18-.52.31-3.75,4.19-4.53,5.1-.35.37-.69.43-.95.06-.26-.43.87-1.54,1.39-2.1l4.01-4.68c.09-.17.21-28.99.31-54.53h.93s-.15,42.06-.15,42.06c-.01,4.02-.62,2.78,2.06,5.45l1.81,1.86c.26.24.7.61.96.92.34.37.86.62.69,1.11-.61.68-1.04-.12-1.56-.62l-2.59-2.67c-.35-.24-1.13-1.11-1.39-1.29l-.03,7.53c0,.31.26.55.52.74l4.06,4.76c.43.5,1.12.87.85,1.55-.43.24-.6.24-.86-.13l-4.15-4.82c-.26-.25-.17-.25-.43-.37,0,.98-.12,7.47-.03,7.84l3.71,4.27c.17.18,1.72,1.92,1.81,2.17Z"></path><path class="cls-1" d="M551.62,65.18c.62.66-.08,1.32-.77.5l-3.97-4.67c-.62,0-.7.06-1,.44l-3.79,4.32c-.54.71-1.31.16-.69-.55l1.62-1.8c.62-.71,1.4-1.58,2.09-2.34.46-.55.92-.93.93-1.42,0-1.37.02-5.86-.06-6.74l-3.86,4.43c-.54.55-1.38.27-.54-.71l1.93-2.18c.39-.44,2.47-2.73,2.47-3l.23-49.49h.88s-.17,46.53-.17,46.53c-.01,3.67-.4,2.3,1.44,4.61l2.83,3.18c.23.22,1,.88.62,1.26-.47.44-1-.38-1.16-.6-1.07-1.09-1.83-2.14-2.83-3.24-.23-.22-.69-.87-.92-.98l-.02,6.89c.07.28,2.75,3.35,3.14,3.79l1.6,1.81Z"></path><path class="cls-1" d="M498.04,57c-.6.25-.69-.06-.95-.37-.26-.31-.52-.55-.78-.86-.43-.56-.87-1.05-1.38-1.61-.43-.55-.87-.99-1.38-1.6-1.04-1.18-.78-1.11-1.82-1.25l-4.61,5.29c-.43.56-1.13.31-.95-.31.08-.24,1.65-1.96,1.83-2.15l3.74-4.25c.09-.37.02-6.85.03-7.84-.26.13-.17.13-.43.37l-4.18,4.81c-.26.37-.43.37-.87.12-.26-.68.44-1.05.88-1.54l4.09-4.75c.26-.18.52-.43.52-.74l.03-7.53c-.26.19-1.04,1.05-1.38,1.3l-2.61,2.64c-.52.5-.96,1.3-1.56.61-.18-.49.34-.74.69-1.11.26-.31.69-.68.95-.93l1.83-1.84c2.7-2.64,2.09-1.41,2.1-5.42l.09-26.28h.94c-.07,16.94-.14,38.56-.04,38.75l3.97,4.7c.52.56,1.64,1.68,1.38,2.11-.26.37-.61.31-.95-.06-.78-.93-3.97-4.83-4.49-5.15-.1,1.61-.01,3.52-.02,5.19-.01,2.84-.36,2.47,1.11,4.07l3.64,4.15c.26.31,1.12,1.11.59,1.48Z"></path><path class="cls-1" d="M442.89,52.81c.61.66-.08,1.31-.77.49l-3.98-4.66c-.61,0-.69.05-1,.44l-3.79,4.31c-.53.71-1.3.17-.69-.55l1.63-1.79c.61-.71,1.39-1.58,2.08-2.35.46-.54.92-.93.93-1.42,0-1.37.02-5.85-.05-6.73l-3.87,4.42c-.53.55-1.38.28-.53-.71l1.93-2.18c.38-.44,2.47-2.72,2.47-3l.18-37.5h.87s-.12,34.55-.12,34.55c-.01,3.66-.39,2.3,1.44,4.6l2.83,3.19c.23.22,1,.87.62,1.26-.46.44-1-.39-1.15-.6-1.08-1.1-1.84-2.15-2.84-3.24-.23-.22-.69-.88-.92-.99l-.02,6.9c.08.27,2.76,3.35,3.14,3.78l1.61,1.82Z"></path><path class="cls-1" d="M389.2,46.53c.61.66-.08,1.31-.77.49l-3.98-4.66c-.61,0-.69.05-.99.44l-3.79,4.31c-.54.71-1.31.16-.69-.55l1.62-1.79c.62-.71,1.39-1.59,2.09-2.35.46-.54.92-.93.93-1.42,0-1.37.02-5.86-.06-6.73l-3.86,4.42c-.54.55-1.38.28-.54-.71l1.93-2.18c.39-.44,2.47-2.72,2.47-3l.17-31.41h.86s-.1,28.46-.1,28.46c-.01,3.66-.39,2.29,1.44,4.6l2.84,3.19c.23.22,1,.87.61,1.26-.46.43-1-.39-1.15-.61-1.08-1.09-1.83-2.14-2.83-3.23-.23-.22-.7-.88-.93-.99l-.02,6.9c.08.27,2.76,3.34,3.15,3.78l1.6,1.82Z"></path><path class="cls-1" d="M335.53,36.71c.62.65-.07,1.31-.76.49l-3.98-4.66c-.62,0-.69.05-1,.43l-3.79,4.32c-.53.71-1.3.16-.69-.55l1.63-1.8c.61-.71,1.39-1.58,2.08-2.34.46-.55.92-.93.93-1.42,0-1.37.02-5.86-.05-6.73l-3.87,4.42c-.53.55-1.38.27-.53-.71l1.93-2.18c.38-.44,2.47-2.73,2.47-3l.13-21.78h.87s-.07,18.82-.07,18.82c-.01,3.67-.4,2.3,1.44,4.61l2.83,3.18c.23.22,1,.88.62,1.26-.46.44-1-.38-1.16-.6-1.07-1.09-1.83-2.14-2.83-3.24-.23-.22-.69-.87-.92-.98l-.02,6.89c.08.28,2.76,3.35,3.14,3.79l1.6,1.82Z"></path><path class="cls-1" d="M11.9,70.76c-.61.25-.69-.06-.95-.37s-.52-.56-.78-.86c-.44-.56-.87-1.05-1.38-1.61-.43-.55-.87-.99-1.38-1.61-1.04-1.18-.78-1.12-1.82-1.25l-4.61,5.29c-.44.56-1.13.31-.96-.31.09-.25,1.66-1.96,1.83-2.15l3.75-4.25c.09-.37.02-6.85.03-7.84-.26.12-.17.12-.43.37l-4.18,4.8c-.26.37-.44.37-.87.12-.26-.68.43-1.05.88-1.54l4.09-4.75c.26-.18.52-.43.52-.74l.03-7.53c-.26.19-1.04,1.05-1.38,1.3l-2.62,2.64c-.52.5-.95,1.3-1.56.61-.17-.49.35-.74.7-1.11.26-.31.69-.68.95-.93l1.83-1.84c2.7-2.64,2.09-1.41,2.1-5.42L5.83,0h.94c-.1,25.48-.18,54.09-.1,54.26l3.97,4.7c.52.56,1.64,1.68,1.38,2.1-.26.37-.61.31-.96-.06-.78-.93-3.96-4.83-4.48-5.15-.1,1.61-.01,3.52-.02,5.19-.01,2.84-.36,2.47,1.11,4.07l3.63,4.15c.26.31,1.13,1.11.6,1.48Z"></path><path class="cls-1" d="M64.88,63.83l-3.75-4.33c-.3-.38-.38-.44-.99-.44l-4.02,4.64c-.69.83-1.38.17-.77-.49l1.62-1.79c.39-.44,3.09-3.5,3.17-3.77l.02-6.9c-.23.11-.7.77-.93.99-1,1.09-1.77,2.12-2.85,3.22-.15.22-.69,1.04-1.15.6-.39-.38.38-1.04.61-1.26l2.86-3.16c1.85-2.29,1.46-.92,1.48-4.59l.17-46.33h.87s-.13,49.28-.13,49.28c0,.28,2.06,2.59,2.45,3.03l1.91,2.19c.84.99,0,1.26-.54.72l-3.82-4.45c-.08.88-.1,5.37-.1,6.73,0,.5.46.88.91,1.43.7.76,1.45,1.65,2.07,2.36l1.6,1.82c.62.71-.15,1.26-.69.54Z"></path><path class="cls-1" d="M173.7,52.44l-3.75-4.33c-.31-.39-.38-.44-1-.44l-4.01,4.64c-.7.82-1.39.16-.77-.49l1.62-1.8c.39-.43,3.09-3.49,3.16-3.76l.02-6.9c-.23.11-.69.77-.92.99-1,1.09-1.78,2.12-2.85,3.22-.16.21-.7,1.04-1.16.6-.38-.39.39-1.04.62-1.26l2.85-3.17c1.86-2.28,1.46-.92,1.48-4.58l.12-34.55h.87s-.08,37.5-.08,37.5c0,.28,2.07,2.58,2.45,3.02l1.92,2.2c.84.99,0,1.26-.54.71l-3.83-4.44c-.07.88-.09,5.36-.09,6.73,0,.49.46.88.91,1.42.69.77,1.45,1.66,2.07,2.37l1.6,1.81c.61.72-.15,1.26-.69.55Z"></path><path class="cls-1" d="M227.42,46.55l-3.74-4.33c-.31-.39-.39-.44-1-.44l-4.02,4.64c-.69.82-1.38.17-.77-.49l1.63-1.8c.38-.44,3.08-3.49,3.16-3.76l.02-6.9c-.23.11-.69.77-.92.99-1,1.09-1.78,2.12-2.86,3.21-.15.22-.69,1.04-1.15.61-.39-.39.38-1.04.61-1.26l2.86-3.17c1.85-2.29,1.46-.92,1.48-4.58l.1-28.46h.86s-.05,31.41-.05,31.41c0,.28,2.07,2.58,2.45,3.02l1.91,2.2c.85.99,0,1.26-.54.71l-3.82-4.44c-.08.87-.1,5.36-.1,6.73,0,.49.46.88.92,1.42.69.77,1.45,1.66,2.06,2.37l1.6,1.81c.62.71-.15,1.26-.69.55Z"></path><path class="cls-1" d="M281.17,37.11l-3.75-4.34c-.3-.38-.38-.43-1-.43l-4.01,4.64c-.69.82-1.39.16-.77-.49l1.62-1.8c.39-.44,3.09-3.49,3.16-3.77l.02-6.89c-.23.11-.69.76-.92.98-1,1.1-1.78,2.13-2.85,3.22-.16.22-.69,1.04-1.16.6-.38-.38.39-1.04.62-1.26l2.85-3.16c1.86-2.29,1.46-.92,1.48-4.59l.07-18.82h.87s-.02,21.78-.02,21.78c0,.27,2.06,2.58,2.45,3.02l1.91,2.2c.84.98,0,1.26-.54.71l-3.82-4.44c-.08.87-.1,5.36-.1,6.73,0,.49.46.87.91,1.42.69.77,1.45,1.65,2.07,2.36l1.6,1.82c.62.71-.15,1.26-.69.55Z"></path><path class="cls-1" d="M120.74,56.64c-.61.25-.7-.06-.96-.37-.26-.31-.52-.55-.78-.86-.43-.56-.86-1.05-1.37-1.61-.44-.55-.87-.99-1.38-1.6-1.04-1.18-.78-1.11-1.82-1.25l-4.62,5.29c-.43.56-1.12.31-.95-.31.09-.24,1.66-1.96,1.83-2.15l3.75-4.25c.09-.37.02-6.85.03-7.84-.26.13-.17.13-.43.37l-4.19,4.8c-.26.37-.43.37-.86.12-.26-.68.43-1.05.87-1.54l4.1-4.75c.26-.18.52-.43.52-.74l.03-7.53c-.26.19-1.04,1.05-1.39,1.29l-2.61,2.64c-.52.5-.95,1.3-1.56.61-.17-.49.35-.74.69-1.11.26-.31.7-.68.96-.93l1.83-1.84c2.7-2.64,2.09-1.41,2.1-5.42l.1-27.28h.93c-.06,17.08-.14,39.56-.03,39.75l3.97,4.7c.52.56,1.63,1.68,1.37,2.1-.26.37-.6.31-.95-.06-.78-.93-3.97-4.83-4.49-5.15-.09,1.61-.01,3.52-.02,5.19-.01,2.84-.35,2.47,1.12,4.07l3.63,4.15c.26.31,1.13,1.11.6,1.48Z"></path></g></g></svg> 